<?xml version="1.0" encoding="UTF-8" standalone="no"?>
<!DOCTYPE svg PUBLIC "-//W3C//DTD SVG 1.1//EN"
 "http://www.w3.org/Graphics/SVG/1.1/DTD/svg11.dtd">
<!-- Generated by graphviz version 2.47.0 (20210316.0004)
 -->
<!-- Title: dependencies Pages: 1 -->
<svg width="1346pt" height="211pt"
 viewBox="0.00 0.00 1346.00 211.00" xmlns="http://www.w3.org/2000/svg" xmlns:xlink="http://www.w3.org/1999/xlink">
<g id="graph0" class="graph" transform="scale(1 1) rotate(0) translate(4 207)">
<title>dependencies</title>
<polygon fill="white" stroke="transparent" points="-4,4 -4,-207 1342,-207 1342,4 -4,4"/>
<text text-anchor="start" x="648.01" y="-42.4" font-family="Times-12" font-weight="bold" font-size="14.00">Legend</text>
<polygon fill="#ffffb3" stroke="transparent" points="435,-10 435,-30 455,-30 455,-10 435,-10"/>
<text text-anchor="start" x="458.63" y="-15.4" font-family="Times-12" font-size="14.00"> &#160;Declarations</text>
<polygon fill="#8dd3c7" stroke="transparent" points="548,-10 548,-30 568,-30 568,-10 548,-10"/>
<text text-anchor="start" x="571.73" y="-15.4" font-family="Times-12" font-size="14.00"> &#160;Module</text>
<polygon fill="#80b1d3" stroke="transparent" points="634,-10 634,-30 654,-30 654,-10 634,-10"/>
<text text-anchor="start" x="657.78" y="-15.4" font-family="Times-12" font-size="14.00"> &#160;Bootstrap</text>
<polygon fill="#fdb462" stroke="transparent" points="731,-10 731,-30 751,-30 751,-10 731,-10"/>
<text text-anchor="start" x="754.67" y="-15.4" font-family="Times-12" font-size="14.00"> &#160;Providers</text>
<polygon fill="#fb8072" stroke="transparent" points="827,-10 827,-30 847,-30 847,-10 827,-10"/>
<text text-anchor="start" x="850.73" y="-15.4" font-family="Times-12" font-size="14.00"> &#160;Exports</text>
<g id="clust1" class="cluster">
<title>cluster_AdminModule</title>
<polygon fill="none" stroke="black" stroke-dasharray="1,5" points="8,-70 8,-195 1330,-195 1330,-70 8,-70"/>
</g>
<g id="clust10" class="cluster">
<title>cluster_AdminModule_imports</title>
<polygon fill="none" stroke="black" points="1162,-78 1162,-130 1322,-130 1322,-78 1162,-78"/>
</g>
<g id="clust2" class="cluster">
<title>cluster_AdminModule_declarations</title>
<polygon fill="none" stroke="black" points="16,-78 16,-130 1154,-130 1154,-78 16,-78"/>
</g>
<!-- AdminListComponent -->
<g id="node1" class="node">
<title>AdminListComponent</title>
<polygon fill="#ffffb3" stroke="black" points="1146,-122 1004,-122 1004,-86 1146,-86 1146,-122"/>
<text text-anchor="middle" x="1075" y="-99.8" font-family="Times,serif" font-size="14.00">AdminListComponent</text>
</g>
<!-- AdminModule -->
<g id="node8" class="node">
<title>AdminModule</title>
<polygon fill="#8dd3c7" stroke="black" points="734.44,-187 731.44,-191 710.44,-191 707.44,-187 635.56,-187 635.56,-151 734.44,-151 734.44,-187"/>
<text text-anchor="middle" x="685" y="-164.8" font-family="Times,serif" font-size="14.00">AdminModule</text>
</g>
<!-- AdminListComponent&#45;&gt;AdminModule -->
<g id="edge1" class="edge">
<title>AdminListComponent&#45;&gt;AdminModule</title>
<path fill="none" stroke="black" d="M1075,-122.11C1075,-141.34 1075,-169 1075,-169 1075,-169 744.39,-169 744.39,-169"/>
<polygon fill="black" stroke="black" points="744.39,-165.5 734.39,-169 744.39,-172.5 744.39,-165.5"/>
</g>
<!-- AdminPanelComponent -->
<g id="node2" class="node">
<title>AdminPanelComponent</title>
<polygon fill="#ffffb3" stroke="black" points="985.82,-122 834.18,-122 834.18,-86 985.82,-86 985.82,-122"/>
<text text-anchor="middle" x="910" y="-99.8" font-family="Times,serif" font-size="14.00">AdminPanelComponent</text>
</g>
<!-- AdminPanelComponent&#45;&gt;AdminModule -->
<g id="edge2" class="edge">
<title>AdminPanelComponent&#45;&gt;AdminModule</title>
<path fill="none" stroke="black" d="M910,-122.03C910,-138.4 910,-160 910,-160 910,-160 744.38,-160 744.38,-160"/>
<polygon fill="black" stroke="black" points="744.38,-156.5 734.38,-160 744.38,-163.5 744.38,-156.5"/>
</g>
<!-- ChartComponent -->
<g id="node3" class="node">
<title>ChartComponent</title>
<polygon fill="#ffffb3" stroke="black" points="816.44,-122 703.56,-122 703.56,-86 816.44,-86 816.44,-122"/>
<text text-anchor="middle" x="760" y="-99.8" font-family="Times,serif" font-size="14.00">ChartComponent</text>
</g>
<!-- ChartComponent&#45;&gt;AdminModule -->
<g id="edge3" class="edge">
<title>ChartComponent&#45;&gt;AdminModule</title>
<path fill="none" stroke="black" d="M719,-122.11C719,-122.11 719,-140.99 719,-140.99"/>
<polygon fill="black" stroke="black" points="715.5,-140.99 719,-150.99 722.5,-140.99 715.5,-140.99"/>
</g>
<!-- PlaceOrdersComponent -->
<g id="node4" class="node">
<title>PlaceOrdersComponent</title>
<polygon fill="#ffffb3" stroke="black" points="685.74,-122 536.26,-122 536.26,-86 685.74,-86 685.74,-122"/>
<text text-anchor="middle" x="611" y="-99.8" font-family="Times,serif" font-size="14.00">PlaceOrdersComponent</text>
</g>
<!-- PlaceOrdersComponent&#45;&gt;AdminModule -->
<g id="edge4" class="edge">
<title>PlaceOrdersComponent&#45;&gt;AdminModule</title>
<path fill="none" stroke="black" d="M660.82,-122.11C660.82,-122.11 660.82,-140.99 660.82,-140.99"/>
<polygon fill="black" stroke="black" points="657.32,-140.99 660.82,-150.99 664.32,-140.99 657.32,-140.99"/>
</g>
<!-- SalesChartComponent -->
<g id="node5" class="node">
<title>SalesChartComponent</title>
<polygon fill="#ffffb3" stroke="black" points="517.98,-122 376.02,-122 376.02,-86 517.98,-86 517.98,-122"/>
<text text-anchor="middle" x="447" y="-99.8" font-family="Times,serif" font-size="14.00">SalesChartComponent</text>
</g>
<!-- SalesChartComponent&#45;&gt;AdminModule -->
<g id="edge5" class="edge">
<title>SalesChartComponent&#45;&gt;AdminModule</title>
<path fill="none" stroke="black" d="M447,-122.03C447,-138.4 447,-160 447,-160 447,-160 625.69,-160 625.69,-160"/>
<polygon fill="black" stroke="black" points="625.69,-163.5 635.69,-160 625.69,-156.5 625.69,-163.5"/>
</g>
<!-- SideNavBarComponent -->
<g id="node6" class="node">
<title>SideNavBarComponent</title>
<polygon fill="#ffffb3" stroke="black" points="357.75,-122 208.25,-122 208.25,-86 357.75,-86 357.75,-122"/>
<text text-anchor="middle" x="283" y="-99.8" font-family="Times,serif" font-size="14.00">SideNavBarComponent</text>
</g>
<!-- SideNavBarComponent&#45;&gt;AdminModule -->
<g id="edge6" class="edge">
<title>SideNavBarComponent&#45;&gt;AdminModule</title>
<path fill="none" stroke="black" d="M283,-122.11C283,-141.34 283,-169 283,-169 283,-169 625.71,-169 625.71,-169"/>
<polygon fill="black" stroke="black" points="625.71,-172.5 635.71,-169 625.71,-165.5 625.71,-172.5"/>
</g>
<!-- UpdateProductComponent -->
<g id="node7" class="node">
<title>UpdateProductComponent</title>
<polygon fill="#ffffb3" stroke="black" points="189.81,-122 24.19,-122 24.19,-86 189.81,-86 189.81,-122"/>
<text text-anchor="middle" x="107" y="-99.8" font-family="Times,serif" font-size="14.00">UpdateProductComponent</text>
</g>
<!-- UpdateProductComponent&#45;&gt;AdminModule -->
<g id="edge7" class="edge">
<title>UpdateProductComponent&#45;&gt;AdminModule</title>
<path fill="none" stroke="black" d="M107,-122.29C107,-144.21 107,-178 107,-178 107,-178 625.72,-178 625.72,-178"/>
<polygon fill="black" stroke="black" points="625.72,-181.5 635.72,-178 625.72,-174.5 625.72,-181.5"/>
</g>
<!-- AdminRoutingModule -->
<g id="node9" class="node">
<title>AdminRoutingModule</title>
<polygon fill="#8dd3c7" stroke="black" points="1313.56,-122 1310.56,-126 1289.56,-126 1286.56,-122 1170.44,-122 1170.44,-86 1313.56,-86 1313.56,-122"/>
<text text-anchor="middle" x="1242" y="-99.8" font-family="Times,serif" font-size="14.00">AdminRoutingModule</text>
</g>
<!-- AdminRoutingModule&#45;&gt;AdminModule -->
<g id="edge8" class="edge">
<title>AdminRoutingModule&#45;&gt;AdminModule</title>
<path fill="none" stroke="black" d="M1242,-122.29C1242,-144.21 1242,-178 1242,-178 1242,-178 744.43,-178 744.43,-178"/>
<polygon fill="black" stroke="black" points="744.43,-174.5 734.43,-178 744.43,-181.5 744.43,-174.5"/>
</g>
</g>
</svg>
