<?xml version="1.0" encoding="UTF-8" standalone="no"?>
<!DOCTYPE svg PUBLIC "-//W3C//DTD SVG 1.1//EN"
 "http://www.w3.org/Graphics/SVG/1.1/DTD/svg11.dtd">
<!-- Generated by graphviz version 2.47.0 (20210316.0004)
 -->
<!-- Title: dependencies Pages: 1 -->
<svg width="2141pt" height="284pt"
 viewBox="0.00 0.00 2141.00 284.00" xmlns="http://www.w3.org/2000/svg" xmlns:xlink="http://www.w3.org/1999/xlink">
<g id="graph0" class="graph" transform="scale(1 1) rotate(0) translate(4 280)">
<title>dependencies</title>
<polygon fill="white" stroke="transparent" points="-4,4 -4,-280 2137,-280 2137,4 -4,4"/>
<text text-anchor="start" x="1045.51" y="-42.4" font-family="Times-12" font-weight="bold" font-size="14.00">Legend</text>
<polygon fill="#ffffb3" stroke="transparent" points="832.5,-10 832.5,-30 852.5,-30 852.5,-10 832.5,-10"/>
<text text-anchor="start" x="856.13" y="-15.4" font-family="Times-12" font-size="14.00"> &#160;Declarations</text>
<polygon fill="#8dd3c7" stroke="transparent" points="945.5,-10 945.5,-30 965.5,-30 965.5,-10 945.5,-10"/>
<text text-anchor="start" x="969.23" y="-15.4" font-family="Times-12" font-size="14.00"> &#160;Module</text>
<polygon fill="#80b1d3" stroke="transparent" points="1031.5,-10 1031.5,-30 1051.5,-30 1051.5,-10 1031.5,-10"/>
<text text-anchor="start" x="1055.28" y="-15.4" font-family="Times-12" font-size="14.00"> &#160;Bootstrap</text>
<polygon fill="#fdb462" stroke="transparent" points="1128.5,-10 1128.5,-30 1148.5,-30 1148.5,-10 1128.5,-10"/>
<text text-anchor="start" x="1152.17" y="-15.4" font-family="Times-12" font-size="14.00"> &#160;Providers</text>
<polygon fill="#fb8072" stroke="transparent" points="1224.5,-10 1224.5,-30 1244.5,-30 1244.5,-10 1224.5,-10"/>
<text text-anchor="start" x="1248.23" y="-15.4" font-family="Times-12" font-size="14.00"> &#160;Exports</text>
<g id="clust1" class="cluster">
<title>cluster_AppModule</title>
<polygon fill="none" stroke="black" stroke-dasharray="1,5" points="8,-70 8,-268 2125,-268 2125,-70 8,-70"/>
</g>
<g id="clust13" class="cluster">
<title>cluster_AppModule_bootstrap</title>
<polygon fill="none" stroke="black" points="1043,-208 1043,-260 1167,-260 1167,-208 1043,-208"/>
</g>
<g id="clust11" class="cluster">
<title>cluster_AppModule_imports</title>
<polygon fill="none" stroke="black" points="1618,-78 1618,-130 2117,-130 2117,-78 1618,-78"/>
</g>
<g id="clust14" class="cluster">
<title>cluster_AppModule_providers</title>
<polygon fill="none" stroke="black" points="1244,-78 1244,-130 1610,-130 1610,-78 1244,-78"/>
</g>
<g id="clust2" class="cluster">
<title>cluster_AppModule_declarations</title>
<polygon fill="none" stroke="black" points="16,-78 16,-130 1236,-130 1236,-78 16,-78"/>
</g>
<!-- AboutComponent -->
<g id="node1" class="node">
<title>AboutComponent</title>
<polygon fill="#ffffb3" stroke="black" points="1228.33,-122 1111.67,-122 1111.67,-86 1228.33,-86 1228.33,-122"/>
<text text-anchor="middle" x="1170" y="-99.8" font-family="Times,serif" font-size="14.00">AboutComponent</text>
</g>
<!-- AppModule -->
<g id="node9" class="node">
<title>AppModule</title>
<polygon fill="#8dd3c7" stroke="black" points="1146.66,-187 1143.66,-191 1122.66,-191 1119.66,-187 1063.34,-187 1063.34,-151 1146.66,-151 1146.66,-187"/>
<text text-anchor="middle" x="1105" y="-164.8" font-family="Times,serif" font-size="14.00">AppModule</text>
</g>
<!-- AboutComponent&#45;&gt;AppModule -->
<g id="edge1" class="edge">
<title>AboutComponent&#45;&gt;AppModule</title>
<path fill="none" stroke="black" d="M1129.33,-122.11C1129.33,-122.11 1129.33,-140.99 1129.33,-140.99"/>
<polygon fill="black" stroke="black" points="1125.83,-140.99 1129.33,-150.99 1132.83,-140.99 1125.83,-140.99"/>
</g>
<!-- AppComponent -->
<g id="node2" class="node">
<title>AppComponent</title>
<polygon fill="#ffffb3" stroke="black" points="1093.94,-122 988.06,-122 988.06,-86 1093.94,-86 1093.94,-122"/>
<text text-anchor="middle" x="1041" y="-99.8" font-family="Times,serif" font-size="14.00">AppComponent</text>
</g>
<!-- AppComponent&#45;&gt;AppModule -->
<g id="edge2" class="edge">
<title>AppComponent&#45;&gt;AppModule</title>
<path fill="none" stroke="black" d="M1078.45,-122.11C1078.45,-122.11 1078.45,-140.99 1078.45,-140.99"/>
<polygon fill="black" stroke="black" points="1074.95,-140.99 1078.45,-150.99 1081.95,-140.99 1074.95,-140.99"/>
</g>
<!-- HomeComponent -->
<g id="node3" class="node">
<title>HomeComponent</title>
<polygon fill="#ffffb3" stroke="black" points="970.55,-122 855.45,-122 855.45,-86 970.55,-86 970.55,-122"/>
<text text-anchor="middle" x="913" y="-99.8" font-family="Times,serif" font-size="14.00">HomeComponent</text>
</g>
<!-- HomeComponent&#45;&gt;AppModule -->
<g id="edge3" class="edge">
<title>HomeComponent&#45;&gt;AppModule</title>
<path fill="none" stroke="black" d="M913,-122.24C913,-137.57 913,-157 913,-157 913,-157 1053.34,-157 1053.34,-157"/>
<polygon fill="black" stroke="black" points="1053.34,-160.5 1063.34,-157 1053.34,-153.5 1053.34,-160.5"/>
</g>
<!-- ImageGalleryComponent -->
<g id="node4" class="node">
<title>ImageGalleryComponent</title>
<polygon fill="#ffffb3" stroke="black" points="837.29,-122 678.71,-122 678.71,-86 837.29,-86 837.29,-122"/>
<text text-anchor="middle" x="758" y="-99.8" font-family="Times,serif" font-size="14.00">ImageGalleryComponent</text>
</g>
<!-- ImageGalleryComponent&#45;&gt;AppModule -->
<g id="edge4" class="edge">
<title>ImageGalleryComponent&#45;&gt;AppModule</title>
<path fill="none" stroke="black" d="M758,-122.03C758,-139.06 758,-162 758,-162 758,-162 1053.14,-162 1053.14,-162"/>
<polygon fill="black" stroke="black" points="1053.14,-165.5 1063.14,-162 1053.14,-158.5 1053.14,-165.5"/>
</g>
<!-- MyOrderComponent -->
<g id="node5" class="node">
<title>MyOrderComponent</title>
<polygon fill="#ffffb3" stroke="black" points="660.92,-122 527.08,-122 527.08,-86 660.92,-86 660.92,-122"/>
<text text-anchor="middle" x="594" y="-99.8" font-family="Times,serif" font-size="14.00">MyOrderComponent</text>
</g>
<!-- MyOrderComponent&#45;&gt;AppModule -->
<g id="edge5" class="edge">
<title>MyOrderComponent&#45;&gt;AppModule</title>
<path fill="none" stroke="black" d="M594,-122.22C594,-140.83 594,-167 594,-167 594,-167 1053.18,-167 1053.18,-167"/>
<polygon fill="black" stroke="black" points="1053.18,-170.5 1063.18,-167 1053.18,-163.5 1053.18,-170.5"/>
</g>
<!-- NgContentComponent -->
<g id="node6" class="node">
<title>NgContentComponent</title>
<polygon fill="#ffffb3" stroke="black" points="509.27,-122 366.73,-122 366.73,-86 509.27,-86 509.27,-122"/>
<text text-anchor="middle" x="438" y="-99.8" font-family="Times,serif" font-size="14.00">NgContentComponent</text>
</g>
<!-- NgContentComponent&#45;&gt;AppModule -->
<g id="edge6" class="edge">
<title>NgContentComponent&#45;&gt;AppModule</title>
<path fill="none" stroke="black" d="M438,-122.22C438,-142.37 438,-172 438,-172 438,-172 1053.28,-172 1053.28,-172"/>
<polygon fill="black" stroke="black" points="1053.28,-175.5 1063.28,-172 1053.28,-168.5 1053.28,-175.5"/>
</g>
<!-- OrderNowComponent -->
<g id="node7" class="node">
<title>OrderNowComponent</title>
<polygon fill="#ffffb3" stroke="black" points="348.69,-122 207.31,-122 207.31,-86 348.69,-86 348.69,-122"/>
<text text-anchor="middle" x="278" y="-99.8" font-family="Times,serif" font-size="14.00">OrderNowComponent</text>
</g>
<!-- OrderNowComponent&#45;&gt;AppModule -->
<g id="edge7" class="edge">
<title>OrderNowComponent&#45;&gt;AppModule</title>
<path fill="none" stroke="black" d="M278,-122.04C278,-143.66 278,-177 278,-177 278,-177 1053.14,-177 1053.14,-177"/>
<polygon fill="black" stroke="black" points="1053.14,-180.5 1063.14,-177 1053.14,-173.5 1053.14,-180.5"/>
</g>
<!-- PageNotFoundComponent -->
<g id="node8" class="node">
<title>PageNotFoundComponent</title>
<polygon fill="#ffffb3" stroke="black" points="189.82,-122 24.18,-122 24.18,-86 189.82,-86 189.82,-122"/>
<text text-anchor="middle" x="107" y="-99.8" font-family="Times,serif" font-size="14.00">PageNotFoundComponent</text>
</g>
<!-- PageNotFoundComponent&#45;&gt;AppModule -->
<g id="edge8" class="edge">
<title>PageNotFoundComponent&#45;&gt;AppModule</title>
<path fill="none" stroke="black" d="M107,-122.09C107,-145.13 107,-182 107,-182 107,-182 1053.07,-182 1053.07,-182"/>
<polygon fill="black" stroke="black" points="1053.07,-185.5 1063.07,-182 1053.07,-178.5 1053.07,-185.5"/>
</g>
<!-- AppComponent  -->
<g id="node14" class="node">
<title>AppComponent </title>
<polygon fill="#80b1d3" stroke="black" points="1159.44,-252 1050.56,-252 1050.56,-216 1159.44,-216 1159.44,-252"/>
<text text-anchor="middle" x="1105" y="-229.8" font-family="Times,serif" font-size="14.00">AppComponent </text>
</g>
<!-- AppModule&#45;&gt;AppComponent  -->
<g id="edge13" class="edge">
<title>AppModule&#45;&gt;AppComponent </title>
<path fill="none" stroke="black" stroke-dasharray="1,5" d="M1105,-187.11C1105,-187.11 1105,-205.99 1105,-205.99"/>
<polygon fill="black" stroke="black" points="1101.5,-205.99 1105,-215.99 1108.5,-205.99 1101.5,-205.99"/>
</g>
<!-- AdminModule -->
<g id="node10" class="node">
<title>AdminModule</title>
<polygon fill="#8dd3c7" stroke="black" points="2109.44,-122 2106.44,-126 2085.44,-126 2082.44,-122 2010.56,-122 2010.56,-86 2109.44,-86 2109.44,-122"/>
<text text-anchor="middle" x="2060" y="-99.8" font-family="Times,serif" font-size="14.00">AdminModule</text>
</g>
<!-- AdminModule&#45;&gt;AppModule -->
<g id="edge9" class="edge">
<title>AdminModule&#45;&gt;AppModule</title>
<path fill="none" stroke="black" d="M2060,-122.09C2060,-145.13 2060,-182 2060,-182 2060,-182 1156.96,-182 1156.96,-182"/>
<polygon fill="black" stroke="black" points="1156.96,-178.5 1146.96,-182 1156.96,-185.5 1156.96,-178.5"/>
</g>
<!-- AppRoutingModule -->
<g id="node11" class="node">
<title>AppRoutingModule</title>
<polygon fill="#8dd3c7" stroke="black" points="1992.27,-122 1989.27,-126 1968.27,-126 1965.27,-122 1863.73,-122 1863.73,-86 1992.27,-86 1992.27,-122"/>
<text text-anchor="middle" x="1928" y="-99.8" font-family="Times,serif" font-size="14.00">AppRoutingModule</text>
</g>
<!-- AppRoutingModule&#45;&gt;AppModule -->
<g id="edge10" class="edge">
<title>AppRoutingModule&#45;&gt;AppModule</title>
<path fill="none" stroke="black" d="M1928,-122.04C1928,-143.66 1928,-177 1928,-177 1928,-177 1156.66,-177 1156.66,-177"/>
<polygon fill="black" stroke="black" points="1156.66,-173.5 1146.66,-177 1156.66,-180.5 1156.66,-173.5"/>
</g>
<!-- ProductModule -->
<g id="node12" class="node">
<title>ProductModule</title>
<polygon fill="#8dd3c7" stroke="black" points="1845.6,-122 1842.6,-126 1821.6,-126 1818.6,-122 1742.4,-122 1742.4,-86 1845.6,-86 1845.6,-122"/>
<text text-anchor="middle" x="1794" y="-99.8" font-family="Times,serif" font-size="14.00">ProductModule</text>
</g>
<!-- ProductModule&#45;&gt;AppModule -->
<g id="edge11" class="edge">
<title>ProductModule&#45;&gt;AppModule</title>
<path fill="none" stroke="black" d="M1794,-122.22C1794,-142.37 1794,-172 1794,-172 1794,-172 1156.81,-172 1156.81,-172"/>
<polygon fill="black" stroke="black" points="1156.81,-168.5 1146.81,-172 1156.81,-175.5 1156.81,-168.5"/>
</g>
<!-- ThemeModule -->
<g id="node13" class="node">
<title>ThemeModule</title>
<polygon fill="#8dd3c7" stroke="black" points="1724.42,-122 1721.42,-126 1700.42,-126 1697.42,-122 1625.58,-122 1625.58,-86 1724.42,-86 1724.42,-122"/>
<text text-anchor="middle" x="1675" y="-99.8" font-family="Times,serif" font-size="14.00">ThemeModule</text>
</g>
<!-- ThemeModule&#45;&gt;AppModule -->
<g id="edge12" class="edge">
<title>ThemeModule&#45;&gt;AppModule</title>
<path fill="none" stroke="black" d="M1675,-122.22C1675,-140.83 1675,-167 1675,-167 1675,-167 1156.91,-167 1156.91,-167"/>
<polygon fill="black" stroke="black" points="1156.91,-163.5 1146.91,-167 1156.91,-170.5 1156.91,-163.5"/>
</g>
<!-- CouchDBInterceptor -->
<g id="node15" class="node">
<title>CouchDBInterceptor</title>
<ellipse fill="#fdb462" stroke="black" cx="1510" cy="-104" rx="92.04" ry="18"/>
<text text-anchor="middle" x="1510" y="-99.8" font-family="Times,serif" font-size="14.00">CouchDBInterceptor</text>
</g>
<!-- CouchDBInterceptor&#45;&gt;AppModule -->
<g id="edge14" class="edge">
<title>CouchDBInterceptor&#45;&gt;AppModule</title>
<path fill="none" stroke="black" d="M1510,-122.03C1510,-139.06 1510,-162 1510,-162 1510,-162 1156.82,-162 1156.82,-162"/>
<polygon fill="black" stroke="black" points="1156.82,-158.5 1146.82,-162 1156.82,-165.5 1156.82,-158.5"/>
</g>
<!-- ErrorInterceptor -->
<g id="node16" class="node">
<title>ErrorInterceptor</title>
<ellipse fill="#fdb462" stroke="black" cx="1326" cy="-104" rx="73.53" ry="18"/>
<text text-anchor="middle" x="1326" y="-99.8" font-family="Times,serif" font-size="14.00">ErrorInterceptor</text>
</g>
<!-- ErrorInterceptor&#45;&gt;AppModule -->
<g id="edge15" class="edge">
<title>ErrorInterceptor&#45;&gt;AppModule</title>
<path fill="none" stroke="black" d="M1326,-122.24C1326,-137.57 1326,-157 1326,-157 1326,-157 1156.83,-157 1156.83,-157"/>
<polygon fill="black" stroke="black" points="1156.83,-153.5 1146.83,-157 1156.83,-160.5 1156.83,-153.5"/>
</g>
</g>
</svg>
