<?xml version="1.0" encoding="UTF-8" standalone="no"?>
<!DOCTYPE svg PUBLIC "-//W3C//DTD SVG 1.1//EN"
 "http://www.w3.org/Graphics/SVG/1.1/DTD/svg11.dtd">
<!-- Generated by graphviz version 2.47.0 (20210316.0004)
 -->
<!-- Title: dependencies Pages: 1 -->
<svg width="1167pt" height="284pt"
 viewBox="0.00 0.00 1167.00 284.00" xmlns="http://www.w3.org/2000/svg" xmlns:xlink="http://www.w3.org/1999/xlink">
<g id="graph0" class="graph" transform="scale(1 1) rotate(0) translate(4 280)">
<title>dependencies</title>
<polygon fill="white" stroke="transparent" points="-4,4 -4,-280 1163,-280 1163,4 -4,4"/>
<text text-anchor="start" x="558.51" y="-42.4" font-family="Times-12" font-weight="bold" font-size="14.00">Legend</text>
<polygon fill="#ffffb3" stroke="transparent" points="345.5,-10 345.5,-30 365.5,-30 365.5,-10 345.5,-10"/>
<text text-anchor="start" x="369.13" y="-15.4" font-family="Times-12" font-size="14.00"> &#160;Declarations</text>
<polygon fill="#8dd3c7" stroke="transparent" points="458.5,-10 458.5,-30 478.5,-30 478.5,-10 458.5,-10"/>
<text text-anchor="start" x="482.23" y="-15.4" font-family="Times-12" font-size="14.00"> &#160;Module</text>
<polygon fill="#80b1d3" stroke="transparent" points="544.5,-10 544.5,-30 564.5,-30 564.5,-10 544.5,-10"/>
<text text-anchor="start" x="568.28" y="-15.4" font-family="Times-12" font-size="14.00"> &#160;Bootstrap</text>
<polygon fill="#fdb462" stroke="transparent" points="641.5,-10 641.5,-30 661.5,-30 661.5,-10 641.5,-10"/>
<text text-anchor="start" x="665.17" y="-15.4" font-family="Times-12" font-size="14.00"> &#160;Providers</text>
<polygon fill="#fb8072" stroke="transparent" points="737.5,-10 737.5,-30 757.5,-30 757.5,-10 737.5,-10"/>
<text text-anchor="start" x="761.23" y="-15.4" font-family="Times-12" font-size="14.00"> &#160;Exports</text>
<g id="clust1" class="cluster">
<title>cluster_ProductModule</title>
<polygon fill="none" stroke="black" stroke-dasharray="1,5" points="8,-70 8,-268 1151,-268 1151,-70 8,-70"/>
</g>
<g id="clust10" class="cluster">
<title>cluster_ProductModule_exports</title>
<polygon fill="none" stroke="black" points="386,-208 386,-260 730,-260 730,-208 386,-208"/>
</g>
<g id="clust2" class="cluster">
<title>cluster_ProductModule_declarations</title>
<polygon fill="none" stroke="black" points="188,-78 188,-130 1143,-130 1143,-78 188,-78"/>
</g>
<g id="clust9" class="cluster">
<title>cluster_ProductModule_imports</title>
<polygon fill="none" stroke="black" points="16,-78 16,-130 180,-130 180,-78 16,-78"/>
</g>
<!-- AddProductComponent -->
<g id="node1" class="node">
<title>AddProductComponent</title>
<polygon fill="#ffffb3" stroke="black" points="1135.49,-122 986.51,-122 986.51,-86 1135.49,-86 1135.49,-122"/>
<text text-anchor="middle" x="1061" y="-99.8" font-family="Times,serif" font-size="14.00">AddProductComponent</text>
</g>
<!-- ProductModule -->
<g id="node7" class="node">
<title>ProductModule</title>
<polygon fill="#8dd3c7" stroke="black" points="598.6,-187 595.6,-191 574.6,-191 571.6,-187 495.4,-187 495.4,-151 598.6,-151 598.6,-187"/>
<text text-anchor="middle" x="547" y="-164.8" font-family="Times,serif" font-size="14.00">ProductModule</text>
</g>
<!-- AddProductComponent&#45;&gt;ProductModule -->
<g id="edge1" class="edge">
<title>AddProductComponent&#45;&gt;ProductModule</title>
<path fill="none" stroke="black" d="M1061,-122.29C1061,-144.21 1061,-178 1061,-178 1061,-178 608.64,-178 608.64,-178"/>
<polygon fill="black" stroke="black" points="608.64,-174.5 598.64,-178 608.64,-181.5 608.64,-174.5"/>
</g>
<!-- ProductListComponent -->
<g id="node2" class="node">
<title>ProductListComponent</title>
<polygon fill="#ffffb3" stroke="black" points="968.16,-122 821.84,-122 821.84,-86 968.16,-86 968.16,-122"/>
<text text-anchor="middle" x="895" y="-99.8" font-family="Times,serif" font-size="14.00">ProductListComponent</text>
</g>
<!-- ProductListComponent&#45;&gt;ProductModule -->
<g id="edge2" class="edge">
<title>ProductListComponent&#45;&gt;ProductModule</title>
<path fill="none" stroke="black" d="M895,-122.11C895,-141.34 895,-169 895,-169 895,-169 608.72,-169 608.72,-169"/>
<polygon fill="black" stroke="black" points="608.72,-165.5 598.72,-169 608.72,-172.5 608.72,-165.5"/>
</g>
<!-- ProductcategoryComponent -->
<g id="node3" class="node">
<title>ProductcategoryComponent</title>
<polygon fill="#ffffb3" stroke="black" points="803.58,-122 630.42,-122 630.42,-86 803.58,-86 803.58,-122"/>
<text text-anchor="middle" x="717" y="-99.8" font-family="Times,serif" font-size="14.00">ProductcategoryComponent</text>
</g>
<!-- ProductcategoryComponent&#45;&gt;ProductModule -->
<g id="edge3" class="edge">
<title>ProductcategoryComponent&#45;&gt;ProductModule</title>
<path fill="none" stroke="black" d="M676.38,-122.03C676.38,-138.4 676.38,-160 676.38,-160 676.38,-160 608.88,-160 608.88,-160"/>
<polygon fill="black" stroke="black" points="608.88,-156.5 598.88,-160 608.88,-163.5 608.88,-156.5"/>
</g>
<!-- ProductsComponent -->
<g id="node4" class="node">
<title>ProductsComponent</title>
<polygon fill="#ffffb3" stroke="black" points="612.33,-122 481.67,-122 481.67,-86 612.33,-86 612.33,-122"/>
<text text-anchor="middle" x="547" y="-99.8" font-family="Times,serif" font-size="14.00">ProductsComponent</text>
</g>
<!-- ProductsComponent&#45;&gt;ProductModule -->
<g id="edge4" class="edge">
<title>ProductsComponent&#45;&gt;ProductModule</title>
<path fill="none" stroke="black" d="M547,-122.11C547,-122.11 547,-140.99 547,-140.99"/>
<polygon fill="black" stroke="black" points="543.5,-140.99 547,-150.99 550.5,-140.99 543.5,-140.99"/>
</g>
<!-- RemoveProductComponent -->
<g id="node5" class="node">
<title>RemoveProductComponent</title>
<polygon fill="#ffffb3" stroke="black" points="463.54,-122 292.46,-122 292.46,-86 463.54,-86 463.54,-122"/>
<text text-anchor="middle" x="378" y="-99.8" font-family="Times,serif" font-size="14.00">RemoveProductComponent</text>
</g>
<!-- RemoveProductComponent&#45;&gt;ProductModule -->
<g id="edge5" class="edge">
<title>RemoveProductComponent&#45;&gt;ProductModule</title>
<path fill="none" stroke="black" d="M428.93,-122.03C428.93,-138.4 428.93,-160 428.93,-160 428.93,-160 485.21,-160 485.21,-160"/>
<polygon fill="black" stroke="black" points="485.21,-163.5 495.21,-160 485.21,-156.5 485.21,-163.5"/>
</g>
<!-- SearchPipe -->
<g id="node6" class="node">
<title>SearchPipe</title>
<polygon fill="#ffffb3" stroke="black" points="274.47,-122 195.53,-122 195.53,-86 274.47,-86 274.47,-122"/>
<text text-anchor="middle" x="235" y="-99.8" font-family="Times,serif" font-size="14.00">SearchPipe</text>
</g>
<!-- SearchPipe&#45;&gt;ProductModule -->
<g id="edge6" class="edge">
<title>SearchPipe&#45;&gt;ProductModule</title>
<path fill="none" stroke="black" d="M235,-122.11C235,-141.34 235,-169 235,-169 235,-169 485.13,-169 485.13,-169"/>
<polygon fill="black" stroke="black" points="485.13,-172.5 495.13,-169 485.13,-165.5 485.13,-172.5"/>
</g>
<!-- ProductcategoryComponent  -->
<g id="node9" class="node">
<title>ProductcategoryComponent </title>
<polygon fill="#fb8072" stroke="black" points="722.08,-252 545.92,-252 545.92,-216 722.08,-216 722.08,-252"/>
<text text-anchor="middle" x="634" y="-229.8" font-family="Times,serif" font-size="14.00">ProductcategoryComponent </text>
</g>
<!-- ProductModule&#45;&gt;ProductcategoryComponent  -->
<g id="edge8" class="edge">
<title>ProductModule&#45;&gt;ProductcategoryComponent </title>
<path fill="none" stroke="black" stroke-dasharray="5,2" d="M572.13,-187.11C572.13,-187.11 572.13,-205.99 572.13,-205.99"/>
<polygon fill="black" stroke="black" points="568.63,-205.99 572.13,-215.99 575.63,-205.99 568.63,-205.99"/>
</g>
<!-- ProductsComponent  -->
<g id="node10" class="node">
<title>ProductsComponent </title>
<polygon fill="#fb8072" stroke="black" points="527.83,-252 394.17,-252 394.17,-216 527.83,-216 527.83,-252"/>
<text text-anchor="middle" x="461" y="-229.8" font-family="Times,serif" font-size="14.00">ProductsComponent </text>
</g>
<!-- ProductModule&#45;&gt;ProductsComponent  -->
<g id="edge9" class="edge">
<title>ProductModule&#45;&gt;ProductsComponent </title>
<path fill="none" stroke="black" stroke-dasharray="5,2" d="M511.68,-187.11C511.68,-187.11 511.68,-205.99 511.68,-205.99"/>
<polygon fill="black" stroke="black" points="508.18,-205.99 511.68,-215.99 515.18,-205.99 508.18,-205.99"/>
</g>
<!-- ProductRoutingModule -->
<g id="node8" class="node">
<title>ProductRoutingModule</title>
<polygon fill="#8dd3c7" stroke="black" points="172.22,-122 169.22,-126 148.22,-126 145.22,-122 23.78,-122 23.78,-86 172.22,-86 172.22,-122"/>
<text text-anchor="middle" x="98" y="-99.8" font-family="Times,serif" font-size="14.00">ProductRoutingModule</text>
</g>
<!-- ProductRoutingModule&#45;&gt;ProductModule -->
<g id="edge7" class="edge">
<title>ProductRoutingModule&#45;&gt;ProductModule</title>
<path fill="none" stroke="black" d="M98,-122.29C98,-144.21 98,-178 98,-178 98,-178 485.06,-178 485.06,-178"/>
<polygon fill="black" stroke="black" points="485.06,-181.5 495.06,-178 485.06,-174.5 485.06,-181.5"/>
</g>
</g>
</svg>
