<?xml version="1.0" encoding="UTF-8" standalone="no"?>
<!DOCTYPE svg PUBLIC "-//W3C//DTD SVG 1.1//EN"
 "http://www.w3.org/Graphics/SVG/1.1/DTD/svg11.dtd">
<!-- Generated by graphviz version 2.47.0 (20210316.0004)
 -->
<!-- Title: dependencies Pages: 1 -->
<svg width="4717pt" height="366pt"
 viewBox="0.00 0.00 4717.00 366.00" xmlns="http://www.w3.org/2000/svg" xmlns:xlink="http://www.w3.org/1999/xlink">
<g id="graph0" class="graph" transform="scale(1 1) rotate(0) translate(4 362)">
<title>dependencies</title>
<polygon fill="white" stroke="transparent" points="-4,4 -4,-362 4713,-362 4713,4 -4,4"/>
<text text-anchor="start" x="2333.51" y="-42.4" font-family="Times-12" font-weight="bold" font-size="14.00">Legend</text>
<polygon fill="#ffffb3" stroke="transparent" points="2120.5,-10 2120.5,-30 2140.5,-30 2140.5,-10 2120.5,-10"/>
<text text-anchor="start" x="2144.13" y="-15.4" font-family="Times-12" font-size="14.00"> &#160;Declarations</text>
<polygon fill="#8dd3c7" stroke="transparent" points="2233.5,-10 2233.5,-30 2253.5,-30 2253.5,-10 2233.5,-10"/>
<text text-anchor="start" x="2257.23" y="-15.4" font-family="Times-12" font-size="14.00"> &#160;Module</text>
<polygon fill="#80b1d3" stroke="transparent" points="2319.5,-10 2319.5,-30 2339.5,-30 2339.5,-10 2319.5,-10"/>
<text text-anchor="start" x="2343.28" y="-15.4" font-family="Times-12" font-size="14.00"> &#160;Bootstrap</text>
<polygon fill="#fdb462" stroke="transparent" points="2416.5,-10 2416.5,-30 2436.5,-30 2436.5,-10 2416.5,-10"/>
<text text-anchor="start" x="2440.17" y="-15.4" font-family="Times-12" font-size="14.00"> &#160;Providers</text>
<polygon fill="#fb8072" stroke="transparent" points="2512.5,-10 2512.5,-30 2532.5,-30 2532.5,-10 2512.5,-10"/>
<text text-anchor="start" x="2536.23" y="-15.4" font-family="Times-12" font-size="14.00"> &#160;Exports</text>
<g id="clust1" class="cluster">
<title>cluster_AdminModule</title>
<polygon fill="none" stroke="black" stroke-dasharray="1,5" points="8,-70 8,-206 1330,-206 1330,-70 8,-70"/>
</g>
<g id="clust2" class="cluster">
<title>cluster_AdminModule_declarations</title>
<polygon fill="none" stroke="black" points="184,-78 184,-130 1322,-130 1322,-78 184,-78"/>
</g>
<g id="clust10" class="cluster">
<title>cluster_AdminModule_imports</title>
<polygon fill="none" stroke="black" points="16,-78 16,-130 176,-130 176,-78 16,-78"/>
</g>
<g id="clust20" class="cluster">
<title>cluster_AppModule</title>
<polygon fill="none" stroke="black" stroke-dasharray="1,5" points="1338,-146 1338,-350 3339,-350 3339,-146 1338,-146"/>
</g>
<g id="clust21" class="cluster">
<title>cluster_AppModule_declarations</title>
<polygon fill="none" stroke="black" points="1720,-154 1720,-206 2940,-206 2940,-154 1720,-154"/>
</g>
<g id="clust30" class="cluster">
<title>cluster_AppModule_imports</title>
<polygon fill="none" stroke="black" points="2948,-154 2948,-206 3331,-206 3331,-154 2948,-154"/>
</g>
<g id="clust32" class="cluster">
<title>cluster_AppModule_bootstrap</title>
<polygon fill="none" stroke="black" points="2318,-290 2318,-342 2442,-342 2442,-290 2318,-290"/>
</g>
<g id="clust33" class="cluster">
<title>cluster_AppModule_providers</title>
<polygon fill="none" stroke="black" points="1346,-154 1346,-206 1712,-206 1712,-154 1346,-154"/>
</g>
<g id="clust40" class="cluster">
<title>cluster_AuthModule</title>
<polygon fill="none" stroke="black" stroke-dasharray="1,5" points="3789,-70 3789,-206 4375,-206 4375,-70 3789,-70"/>
</g>
<g id="clust41" class="cluster">
<title>cluster_AuthModule_declarations</title>
<polygon fill="none" stroke="black" points="3953,-78 3953,-130 4367,-130 4367,-78 3953,-78"/>
</g>
<g id="clust45" class="cluster">
<title>cluster_AuthModule_imports</title>
<polygon fill="none" stroke="black" points="3797,-78 3797,-130 3945,-130 3945,-78 3797,-78"/>
</g>
<g id="clust55" class="cluster">
<title>cluster_ProductModule</title>
<polygon fill="none" stroke="black" stroke-dasharray="1,5" points="2286,-70 2286,-138 3781,-138 3781,-70 2286,-70"/>
</g>
<g id="clust56" class="cluster">
<title>cluster_ProductModule_declarations</title>
<polygon fill="none" stroke="black" points="2818,-78 2818,-130 3773,-130 3773,-78 2818,-78"/>
</g>
<g id="clust63" class="cluster">
<title>cluster_ProductModule_imports</title>
<polygon fill="none" stroke="black" points="2646,-78 2646,-130 2810,-130 2810,-78 2646,-78"/>
</g>
<g id="clust64" class="cluster">
<title>cluster_ProductModule_exports</title>
<polygon fill="none" stroke="black" points="2294,-78 2294,-130 2638,-130 2638,-78 2294,-78"/>
</g>
<g id="clust73" class="cluster">
<title>cluster_ThemeModule</title>
<polygon fill="none" stroke="black" stroke-dasharray="1,5" points="3347,-214 3347,-282 3926,-282 3926,-214 3347,-214"/>
</g>
<g id="clust74" class="cluster">
<title>cluster_ThemeModule_declarations</title>
<polygon fill="none" stroke="black" points="3644,-222 3644,-274 3918,-274 3918,-222 3644,-222"/>
</g>
<g id="clust78" class="cluster">
<title>cluster_ThemeModule_exports</title>
<polygon fill="none" stroke="black" points="3355,-222 3355,-274 3636,-274 3636,-222 3355,-222"/>
</g>
<g id="clust81" class="cluster">
<title>cluster_UserModule</title>
<polygon fill="none" stroke="black" stroke-dasharray="1,5" points="4383,-70 4383,-206 4701,-206 4701,-70 4383,-70"/>
</g>
<g id="clust82" class="cluster">
<title>cluster_UserModule_declarations</title>
<polygon fill="none" stroke="black" points="4547,-78 4547,-130 4693,-130 4693,-78 4547,-78"/>
</g>
<g id="clust84" class="cluster">
<title>cluster_UserModule_imports</title>
<polygon fill="none" stroke="black" points="4391,-78 4391,-130 4539,-130 4539,-78 4391,-78"/>
</g>
<!-- AdminListComponent -->
<g id="node1" class="node">
<title>AdminListComponent</title>
<polygon fill="#ffffb3" stroke="black" points="1314,-122 1172,-122 1172,-86 1314,-86 1314,-122"/>
<text text-anchor="middle" x="1243" y="-99.8" font-family="Times,serif" font-size="14.00">AdminListComponent</text>
</g>
<!-- AdminModule -->
<g id="node8" class="node">
<title>AdminModule</title>
<polygon fill="#8dd3c7" stroke="black" points="828.44,-198 825.44,-202 804.44,-202 801.44,-198 729.56,-198 729.56,-162 828.44,-162 828.44,-198"/>
<text text-anchor="middle" x="779" y="-175.8" font-family="Times,serif" font-size="14.00">AdminModule</text>
</g>
<!-- AdminListComponent&#45;&gt;AdminModule -->
<g id="edge1" class="edge">
<title>AdminListComponent&#45;&gt;AdminModule</title>
<path fill="none" stroke="black" d="M1243,-122.03C1243,-146.98 1243,-189 1243,-189 1243,-189 838.66,-189 838.66,-189"/>
<polygon fill="black" stroke="black" points="838.66,-185.5 828.66,-189 838.66,-192.5 838.66,-185.5"/>
</g>
<!-- AdminPanelComponent -->
<g id="node2" class="node">
<title>AdminPanelComponent</title>
<polygon fill="#ffffb3" stroke="black" points="1153.82,-122 1002.18,-122 1002.18,-86 1153.82,-86 1153.82,-122"/>
<text text-anchor="middle" x="1078" y="-99.8" font-family="Times,serif" font-size="14.00">AdminPanelComponent</text>
</g>
<!-- AdminPanelComponent&#45;&gt;AdminModule -->
<g id="edge2" class="edge">
<title>AdminPanelComponent&#45;&gt;AdminModule</title>
<path fill="none" stroke="black" d="M1078,-122.01C1078,-144.49 1078,-180 1078,-180 1078,-180 838.37,-180 838.37,-180"/>
<polygon fill="black" stroke="black" points="838.37,-176.5 828.37,-180 838.37,-183.5 838.37,-176.5"/>
</g>
<!-- ChartComponent -->
<g id="node3" class="node">
<title>ChartComponent</title>
<polygon fill="#ffffb3" stroke="black" points="984.44,-122 871.56,-122 871.56,-86 984.44,-86 984.44,-122"/>
<text text-anchor="middle" x="928" y="-99.8" font-family="Times,serif" font-size="14.00">ChartComponent</text>
</g>
<!-- ChartComponent&#45;&gt;AdminModule -->
<g id="edge3" class="edge">
<title>ChartComponent&#45;&gt;AdminModule</title>
<path fill="none" stroke="black" d="M928,-122.31C928,-142.15 928,-171 928,-171 928,-171 838.61,-171 838.61,-171"/>
<polygon fill="black" stroke="black" points="838.61,-167.5 828.61,-171 838.61,-174.5 838.61,-167.5"/>
</g>
<!-- PlaceOrdersComponent -->
<g id="node4" class="node">
<title>PlaceOrdersComponent</title>
<polygon fill="#ffffb3" stroke="black" points="853.74,-122 704.26,-122 704.26,-86 853.74,-86 853.74,-122"/>
<text text-anchor="middle" x="779" y="-99.8" font-family="Times,serif" font-size="14.00">PlaceOrdersComponent</text>
</g>
<!-- PlaceOrdersComponent&#45;&gt;AdminModule -->
<g id="edge4" class="edge">
<title>PlaceOrdersComponent&#45;&gt;AdminModule</title>
<path fill="none" stroke="black" d="M779,-122.01C779,-122.01 779,-151.85 779,-151.85"/>
<polygon fill="black" stroke="black" points="775.5,-151.85 779,-161.85 782.5,-151.85 775.5,-151.85"/>
</g>
<!-- SalesChartComponent -->
<g id="node5" class="node">
<title>SalesChartComponent</title>
<polygon fill="#ffffb3" stroke="black" points="685.98,-122 544.02,-122 544.02,-86 685.98,-86 685.98,-122"/>
<text text-anchor="middle" x="615" y="-99.8" font-family="Times,serif" font-size="14.00">SalesChartComponent</text>
</g>
<!-- SalesChartComponent&#45;&gt;AdminModule -->
<g id="edge5" class="edge">
<title>SalesChartComponent&#45;&gt;AdminModule</title>
<path fill="none" stroke="black" d="M615,-122.03C615,-141.58 615,-170 615,-170 615,-170 719.35,-170 719.35,-170"/>
<polygon fill="black" stroke="black" points="719.35,-173.5 729.35,-170 719.35,-166.5 719.35,-173.5"/>
</g>
<!-- SideNavBarComponent -->
<g id="node6" class="node">
<title>SideNavBarComponent</title>
<polygon fill="#ffffb3" stroke="black" points="525.75,-122 376.25,-122 376.25,-86 525.75,-86 525.75,-122"/>
<text text-anchor="middle" x="451" y="-99.8" font-family="Times,serif" font-size="14.00">SideNavBarComponent</text>
</g>
<!-- SideNavBarComponent&#45;&gt;AdminModule -->
<g id="edge6" class="edge">
<title>SideNavBarComponent&#45;&gt;AdminModule</title>
<path fill="none" stroke="black" d="M451,-122.04C451,-143.66 451,-177 451,-177 451,-177 719.54,-177 719.54,-177"/>
<polygon fill="black" stroke="black" points="719.54,-180.5 729.54,-177 719.54,-173.5 719.54,-180.5"/>
</g>
<!-- UpdateProductComponent -->
<g id="node7" class="node">
<title>UpdateProductComponent</title>
<polygon fill="#ffffb3" stroke="black" points="357.81,-122 192.19,-122 192.19,-86 357.81,-86 357.81,-122"/>
<text text-anchor="middle" x="275" y="-99.8" font-family="Times,serif" font-size="14.00">UpdateProductComponent</text>
</g>
<!-- UpdateProductComponent&#45;&gt;AdminModule -->
<g id="edge7" class="edge">
<title>UpdateProductComponent&#45;&gt;AdminModule</title>
<path fill="none" stroke="black" d="M275,-122.15C275,-145.76 275,-184 275,-184 275,-184 719.76,-184 719.76,-184"/>
<polygon fill="black" stroke="black" points="719.76,-187.5 729.76,-184 719.76,-180.5 719.76,-187.5"/>
</g>
<!-- AppModule -->
<g id="node18" class="node">
<title>AppModule</title>
<polygon fill="#8dd3c7" stroke="black" points="2421.66,-266 2418.66,-270 2397.66,-270 2394.66,-266 2338.34,-266 2338.34,-230 2421.66,-230 2421.66,-266"/>
<text text-anchor="middle" x="2380" y="-243.8" font-family="Times,serif" font-size="14.00">AppModule</text>
</g>
<!-- AdminModule&#45;&gt;AppModule -->
<g id="edge17" class="edge">
<title>AdminModule&#45;&gt;AppModule</title>
<path fill="none" stroke="black" d="M779,-198.38C779,-222.28 779,-261 779,-261 779,-261 2328,-261 2328,-261"/>
<polygon fill="black" stroke="black" points="2328,-264.5 2338,-261 2328,-257.5 2328,-264.5"/>
</g>
<!-- AdminRoutingModule -->
<g id="node9" class="node">
<title>AdminRoutingModule</title>
<polygon fill="#8dd3c7" stroke="black" points="167.56,-122 164.56,-126 143.56,-126 140.56,-122 24.44,-122 24.44,-86 167.56,-86 167.56,-122"/>
<text text-anchor="middle" x="96" y="-99.8" font-family="Times,serif" font-size="14.00">AdminRoutingModule</text>
</g>
<!-- AdminRoutingModule&#45;&gt;AdminModule -->
<g id="edge8" class="edge">
<title>AdminRoutingModule&#45;&gt;AdminModule</title>
<path fill="none" stroke="black" d="M96,-122.03C96,-147.51 96,-191 96,-191 96,-191 719.61,-191 719.61,-191"/>
<polygon fill="black" stroke="black" points="719.61,-194.5 729.61,-191 719.61,-187.5 719.61,-194.5"/>
</g>
<!-- AboutComponent -->
<g id="node10" class="node">
<title>AboutComponent</title>
<polygon fill="#ffffb3" stroke="black" points="2932.33,-198 2815.67,-198 2815.67,-162 2932.33,-162 2932.33,-198"/>
<text text-anchor="middle" x="2874" y="-175.8" font-family="Times,serif" font-size="14.00">AboutComponent</text>
</g>
<!-- AboutComponent&#45;&gt;AppModule -->
<g id="edge9" class="edge">
<title>AboutComponent&#45;&gt;AppModule</title>
<path fill="none" stroke="black" d="M2874,-198.03C2874,-217.58 2874,-246 2874,-246 2874,-246 2431.69,-246 2431.69,-246"/>
<polygon fill="black" stroke="black" points="2431.69,-242.5 2421.69,-246 2431.69,-249.5 2431.69,-242.5"/>
</g>
<!-- AppComponent -->
<g id="node11" class="node">
<title>AppComponent</title>
<polygon fill="#ffffb3" stroke="black" points="2797.94,-198 2692.06,-198 2692.06,-162 2797.94,-162 2797.94,-198"/>
<text text-anchor="middle" x="2745" y="-175.8" font-family="Times,serif" font-size="14.00">AppComponent</text>
</g>
<!-- AppComponent&#45;&gt;AppModule -->
<g id="edge10" class="edge">
<title>AppComponent&#45;&gt;AppModule</title>
<path fill="none" stroke="black" d="M2745,-198.3C2745,-216.27 2745,-241 2745,-241 2745,-241 2431.87,-241 2431.87,-241"/>
<polygon fill="black" stroke="black" points="2431.87,-237.5 2421.87,-241 2431.87,-244.5 2431.87,-237.5"/>
</g>
<!-- HomeComponent -->
<g id="node12" class="node">
<title>HomeComponent</title>
<polygon fill="#ffffb3" stroke="black" points="2674.55,-198 2559.45,-198 2559.45,-162 2674.55,-162 2674.55,-198"/>
<text text-anchor="middle" x="2617" y="-175.8" font-family="Times,serif" font-size="14.00">HomeComponent</text>
</g>
<!-- HomeComponent&#45;&gt;AppModule -->
<g id="edge11" class="edge">
<title>HomeComponent&#45;&gt;AppModule</title>
<path fill="none" stroke="black" d="M2617,-198.03C2617,-214.4 2617,-236 2617,-236 2617,-236 2431.83,-236 2431.83,-236"/>
<polygon fill="black" stroke="black" points="2431.83,-232.5 2421.83,-236 2431.83,-239.5 2431.83,-232.5"/>
</g>
<!-- ImageGalleryComponent -->
<g id="node13" class="node">
<title>ImageGalleryComponent</title>
<polygon fill="#ffffb3" stroke="black" points="2541.29,-198 2382.71,-198 2382.71,-162 2541.29,-162 2541.29,-198"/>
<text text-anchor="middle" x="2462" y="-175.8" font-family="Times,serif" font-size="14.00">ImageGalleryComponent</text>
</g>
<!-- ImageGalleryComponent&#45;&gt;AppModule -->
<g id="edge12" class="edge">
<title>ImageGalleryComponent&#45;&gt;AppModule</title>
<path fill="none" stroke="black" d="M2402.34,-198.22C2402.34,-198.22 2402.34,-219.73 2402.34,-219.73"/>
<polygon fill="black" stroke="black" points="2398.84,-219.73 2402.34,-229.73 2405.84,-219.73 2398.84,-219.73"/>
</g>
<!-- MyOrderComponent -->
<g id="node14" class="node">
<title>MyOrderComponent</title>
<polygon fill="#ffffb3" stroke="black" points="2364.92,-198 2231.08,-198 2231.08,-162 2364.92,-162 2364.92,-198"/>
<text text-anchor="middle" x="2298" y="-175.8" font-family="Times,serif" font-size="14.00">MyOrderComponent</text>
</g>
<!-- MyOrderComponent&#45;&gt;AppModule -->
<g id="edge13" class="edge">
<title>MyOrderComponent&#45;&gt;AppModule</title>
<path fill="none" stroke="black" d="M2351.44,-198.22C2351.44,-198.22 2351.44,-219.73 2351.44,-219.73"/>
<polygon fill="black" stroke="black" points="2347.94,-219.73 2351.44,-229.73 2354.94,-219.73 2347.94,-219.73"/>
</g>
<!-- NgContentComponent -->
<g id="node15" class="node">
<title>NgContentComponent</title>
<polygon fill="#ffffb3" stroke="black" points="2213.27,-198 2070.73,-198 2070.73,-162 2213.27,-162 2213.27,-198"/>
<text text-anchor="middle" x="2142" y="-175.8" font-family="Times,serif" font-size="14.00">NgContentComponent</text>
</g>
<!-- NgContentComponent&#45;&gt;AppModule -->
<g id="edge14" class="edge">
<title>NgContentComponent&#45;&gt;AppModule</title>
<path fill="none" stroke="black" d="M2142,-198.03C2142,-214.4 2142,-236 2142,-236 2142,-236 2328.27,-236 2328.27,-236"/>
<polygon fill="black" stroke="black" points="2328.27,-239.5 2338.27,-236 2328.27,-232.5 2328.27,-239.5"/>
</g>
<!-- OrderNowComponent -->
<g id="node16" class="node">
<title>OrderNowComponent</title>
<polygon fill="#ffffb3" stroke="black" points="2052.69,-198 1911.31,-198 1911.31,-162 2052.69,-162 2052.69,-198"/>
<text text-anchor="middle" x="1982" y="-175.8" font-family="Times,serif" font-size="14.00">OrderNowComponent</text>
</g>
<!-- OrderNowComponent&#45;&gt;AppModule -->
<g id="edge15" class="edge">
<title>OrderNowComponent&#45;&gt;AppModule</title>
<path fill="none" stroke="black" d="M1982,-198.3C1982,-216.27 1982,-241 1982,-241 1982,-241 2328.16,-241 2328.16,-241"/>
<polygon fill="black" stroke="black" points="2328.16,-244.5 2338.16,-241 2328.16,-237.5 2328.16,-244.5"/>
</g>
<!-- PageNotFoundComponent -->
<g id="node17" class="node">
<title>PageNotFoundComponent</title>
<polygon fill="#ffffb3" stroke="black" points="1893.82,-198 1728.18,-198 1728.18,-162 1893.82,-162 1893.82,-198"/>
<text text-anchor="middle" x="1811" y="-175.8" font-family="Times,serif" font-size="14.00">PageNotFoundComponent</text>
</g>
<!-- PageNotFoundComponent&#45;&gt;AppModule -->
<g id="edge16" class="edge">
<title>PageNotFoundComponent&#45;&gt;AppModule</title>
<path fill="none" stroke="black" d="M1811,-198.03C1811,-217.58 1811,-246 1811,-246 1811,-246 2328.16,-246 2328.16,-246"/>
<polygon fill="black" stroke="black" points="2328.16,-249.5 2338.16,-246 2328.16,-242.5 2328.16,-249.5"/>
</g>
<!-- AppComponent  -->
<g id="node22" class="node">
<title>AppComponent </title>
<polygon fill="#80b1d3" stroke="black" points="2434.44,-334 2325.56,-334 2325.56,-298 2434.44,-298 2434.44,-334"/>
<text text-anchor="middle" x="2380" y="-311.8" font-family="Times,serif" font-size="14.00">AppComponent </text>
</g>
<!-- AppModule&#45;&gt;AppComponent  -->
<g id="edge21" class="edge">
<title>AppModule&#45;&gt;AppComponent </title>
<path fill="none" stroke="black" stroke-dasharray="1,5" d="M2380,-266.22C2380,-266.22 2380,-287.73 2380,-287.73"/>
<polygon fill="black" stroke="black" points="2376.5,-287.73 2380,-297.73 2383.5,-287.73 2376.5,-287.73"/>
</g>
<!-- AppRoutingModule -->
<g id="node19" class="node">
<title>AppRoutingModule</title>
<polygon fill="#8dd3c7" stroke="black" points="3206.27,-198 3203.27,-202 3182.27,-202 3179.27,-198 3077.73,-198 3077.73,-162 3206.27,-162 3206.27,-198"/>
<text text-anchor="middle" x="3142" y="-175.8" font-family="Times,serif" font-size="14.00">AppRoutingModule</text>
</g>
<!-- AppRoutingModule&#45;&gt;AppModule -->
<g id="edge18" class="edge">
<title>AppRoutingModule&#45;&gt;AppModule</title>
<path fill="none" stroke="black" d="M3142,-198.01C3142,-220.49 3142,-256 3142,-256 3142,-256 2431.78,-256 2431.78,-256"/>
<polygon fill="black" stroke="black" points="2431.78,-252.5 2421.78,-256 2431.78,-259.5 2431.78,-252.5"/>
</g>
<!-- ProductModule -->
<g id="node20" class="node">
<title>ProductModule</title>
<polygon fill="#8dd3c7" stroke="black" points="3059.6,-198 3056.6,-202 3035.6,-202 3032.6,-198 2956.4,-198 2956.4,-162 3059.6,-162 3059.6,-198"/>
<text text-anchor="middle" x="3008" y="-175.8" font-family="Times,serif" font-size="14.00">ProductModule</text>
</g>
<!-- ProductModule&#45;&gt;AppModule -->
<g id="edge19" class="edge">
<title>ProductModule&#45;&gt;AppModule</title>
<path fill="none" stroke="black" d="M3008,-198.28C3008,-219.32 3008,-251 3008,-251 3008,-251 2431.69,-251 2431.69,-251"/>
<polygon fill="black" stroke="black" points="2431.69,-247.5 2421.69,-251 2431.69,-254.5 2431.69,-247.5"/>
</g>
<!-- ProductcategoryComponent  -->
<g id="node37" class="node">
<title>ProductcategoryComponent </title>
<polygon fill="#fb8072" stroke="black" points="2630.08,-122 2453.92,-122 2453.92,-86 2630.08,-86 2630.08,-122"/>
<text text-anchor="middle" x="2542" y="-99.8" font-family="Times,serif" font-size="14.00">ProductcategoryComponent </text>
</g>
<!-- ProductModule&#45;&gt;ProductcategoryComponent  -->
<g id="edge35" class="edge">
<title>ProductModule&#45;&gt;ProductcategoryComponent </title>
<path fill="none" stroke="black" stroke-dasharray="5,2" d="M2977.07,-161.94C2977.07,-157.51 2977.07,-154 2977.07,-154 2977.07,-154 2594.76,-154 2594.76,-154 2594.76,-154 2594.76,-132.05 2594.76,-132.05"/>
<polygon fill="black" stroke="black" points="2598.26,-132.05 2594.76,-122.05 2591.26,-132.05 2598.26,-132.05"/>
</g>
<!-- ProductsComponent  -->
<g id="node38" class="node">
<title>ProductsComponent </title>
<polygon fill="#fb8072" stroke="black" points="2435.83,-122 2302.17,-122 2302.17,-86 2435.83,-86 2435.83,-122"/>
<text text-anchor="middle" x="2369" y="-99.8" font-family="Times,serif" font-size="14.00">ProductsComponent </text>
</g>
<!-- ProductModule&#45;&gt;ProductsComponent  -->
<g id="edge36" class="edge">
<title>ProductModule&#45;&gt;ProductsComponent </title>
<path fill="none" stroke="black" stroke-dasharray="5,2" d="M2966.76,-161.83C2966.76,-159.55 2966.76,-158 2966.76,-158 2966.76,-158 2409.38,-158 2409.38,-158 2409.38,-158 2409.38,-132.28 2409.38,-132.28"/>
<polygon fill="black" stroke="black" points="2412.88,-132.28 2409.38,-122.28 2405.88,-132.28 2412.88,-132.28"/>
</g>
<!-- ThemeModule -->
<g id="node21" class="node">
<title>ThemeModule</title>
<polygon fill="#8dd3c7" stroke="black" points="3323.42,-198 3320.42,-202 3299.42,-202 3296.42,-198 3224.58,-198 3224.58,-162 3323.42,-162 3323.42,-198"/>
<text text-anchor="middle" x="3274" y="-175.8" font-family="Times,serif" font-size="14.00">ThemeModule</text>
</g>
<!-- ThemeModule&#45;&gt;AppModule -->
<g id="edge20" class="edge">
<title>ThemeModule&#45;&gt;AppModule</title>
<path fill="none" stroke="black" d="M3274,-198.38C3274,-222.28 3274,-261 3274,-261 3274,-261 2431.92,-261 2431.92,-261"/>
<polygon fill="black" stroke="black" points="2431.92,-257.5 2421.92,-261 2431.92,-264.5 2431.92,-257.5"/>
</g>
<!-- FooterComponent  -->
<g id="node41" class="node">
<title>FooterComponent </title>
<polygon fill="#fb8072" stroke="black" points="3627.88,-266 3506.12,-266 3506.12,-230 3627.88,-230 3627.88,-266"/>
<text text-anchor="middle" x="3567" y="-243.8" font-family="Times,serif" font-size="14.00">FooterComponent </text>
</g>
<!-- ThemeModule&#45;&gt;FooterComponent  -->
<g id="edge39" class="edge">
<title>ThemeModule&#45;&gt;FooterComponent </title>
<path fill="none" stroke="black" stroke-dasharray="5,2" d="M3323.44,-180C3403.42,-180 3552.32,-180 3552.32,-180 3552.32,-180 3552.32,-219.78 3552.32,-219.78"/>
<polygon fill="black" stroke="black" points="3548.82,-219.78 3552.32,-229.78 3555.82,-219.78 3548.82,-219.78"/>
</g>
<!-- HeaderComponent  -->
<g id="node42" class="node">
<title>HeaderComponent </title>
<polygon fill="#fb8072" stroke="black" points="3488.74,-266 3363.26,-266 3363.26,-230 3488.74,-230 3488.74,-266"/>
<text text-anchor="middle" x="3426" y="-243.8" font-family="Times,serif" font-size="14.00">HeaderComponent </text>
</g>
<!-- ThemeModule&#45;&gt;HeaderComponent  -->
<g id="edge40" class="edge">
<title>ThemeModule&#45;&gt;HeaderComponent </title>
<path fill="none" stroke="black" stroke-dasharray="5,2" d="M3323.55,-192C3358.25,-192 3398.46,-192 3398.46,-192 3398.46,-192 3398.46,-219.97 3398.46,-219.97"/>
<polygon fill="black" stroke="black" points="3394.96,-219.97 3398.46,-229.97 3401.96,-219.97 3394.96,-219.97"/>
</g>
<!-- CouchDBInterceptor -->
<g id="node23" class="node">
<title>CouchDBInterceptor</title>
<ellipse fill="#fdb462" stroke="black" cx="1612" cy="-180" rx="92.04" ry="18"/>
<text text-anchor="middle" x="1612" y="-175.8" font-family="Times,serif" font-size="14.00">CouchDBInterceptor</text>
</g>
<!-- CouchDBInterceptor&#45;&gt;AppModule -->
<g id="edge22" class="edge">
<title>CouchDBInterceptor&#45;&gt;AppModule</title>
<path fill="none" stroke="black" d="M1612,-198.28C1612,-219.32 1612,-251 1612,-251 1612,-251 2328.16,-251 2328.16,-251"/>
<polygon fill="black" stroke="black" points="2328.16,-254.5 2338.16,-251 2328.16,-247.5 2328.16,-254.5"/>
</g>
<!-- ErrorInterceptor -->
<g id="node24" class="node">
<title>ErrorInterceptor</title>
<ellipse fill="#fdb462" stroke="black" cx="1428" cy="-180" rx="73.53" ry="18"/>
<text text-anchor="middle" x="1428" y="-175.8" font-family="Times,serif" font-size="14.00">ErrorInterceptor</text>
</g>
<!-- ErrorInterceptor&#45;&gt;AppModule -->
<g id="edge23" class="edge">
<title>ErrorInterceptor&#45;&gt;AppModule</title>
<path fill="none" stroke="black" d="M1428,-198.01C1428,-220.49 1428,-256 1428,-256 1428,-256 2328.17,-256 2328.17,-256"/>
<polygon fill="black" stroke="black" points="2328.17,-259.5 2338.17,-256 2328.17,-252.5 2328.17,-259.5"/>
</g>
<!-- AdminComponent -->
<g id="node25" class="node">
<title>AdminComponent</title>
<polygon fill="#ffffb3" stroke="black" points="4359.22,-122 4238.78,-122 4238.78,-86 4359.22,-86 4359.22,-122"/>
<text text-anchor="middle" x="4299" y="-99.8" font-family="Times,serif" font-size="14.00">AdminComponent</text>
</g>
<!-- AuthModule -->
<g id="node28" class="node">
<title>AuthModule</title>
<polygon fill="#8dd3c7" stroke="black" points="4137.55,-198 4134.55,-202 4113.55,-202 4110.55,-198 4050.45,-198 4050.45,-162 4137.55,-162 4137.55,-198"/>
<text text-anchor="middle" x="4094" y="-175.8" font-family="Times,serif" font-size="14.00">AuthModule</text>
</g>
<!-- AdminComponent&#45;&gt;AuthModule -->
<g id="edge24" class="edge">
<title>AdminComponent&#45;&gt;AuthModule</title>
<path fill="none" stroke="black" d="M4299,-122.01C4299,-144.49 4299,-180 4299,-180 4299,-180 4147.73,-180 4147.73,-180"/>
<polygon fill="black" stroke="black" points="4147.73,-176.5 4137.73,-180 4147.73,-183.5 4147.73,-176.5"/>
</g>
<!-- LoginComponent -->
<g id="node26" class="node">
<title>LoginComponent</title>
<polygon fill="#ffffb3" stroke="black" points="4221.28,-122 4106.72,-122 4106.72,-86 4221.28,-86 4221.28,-122"/>
<text text-anchor="middle" x="4164" y="-99.8" font-family="Times,serif" font-size="14.00">LoginComponent</text>
</g>
<!-- LoginComponent&#45;&gt;AuthModule -->
<g id="edge25" class="edge">
<title>LoginComponent&#45;&gt;AuthModule</title>
<path fill="none" stroke="black" d="M4122.19,-122.01C4122.19,-122.01 4122.19,-151.85 4122.19,-151.85"/>
<polygon fill="black" stroke="black" points="4118.69,-151.85 4122.19,-161.85 4125.69,-151.85 4118.69,-151.85"/>
</g>
<!-- RegisterComponent -->
<g id="node27" class="node">
<title>RegisterComponent</title>
<polygon fill="#ffffb3" stroke="black" points="4088.98,-122 3961.02,-122 3961.02,-86 4088.98,-86 4088.98,-122"/>
<text text-anchor="middle" x="4025" y="-99.8" font-family="Times,serif" font-size="14.00">RegisterComponent</text>
</g>
<!-- RegisterComponent&#45;&gt;AuthModule -->
<g id="edge26" class="edge">
<title>RegisterComponent&#45;&gt;AuthModule</title>
<path fill="none" stroke="black" d="M4069.61,-122.01C4069.61,-122.01 4069.61,-151.85 4069.61,-151.85"/>
<polygon fill="black" stroke="black" points="4066.11,-151.85 4069.61,-161.85 4073.11,-151.85 4066.11,-151.85"/>
</g>
<!-- AuthRoutingModule -->
<g id="node29" class="node">
<title>AuthRoutingModule</title>
<polygon fill="#8dd3c7" stroke="black" points="3937.17,-122 3934.17,-126 3913.17,-126 3910.17,-122 3804.83,-122 3804.83,-86 3937.17,-86 3937.17,-122"/>
<text text-anchor="middle" x="3871" y="-99.8" font-family="Times,serif" font-size="14.00">AuthRoutingModule</text>
</g>
<!-- AuthRoutingModule&#45;&gt;AuthModule -->
<g id="edge27" class="edge">
<title>AuthRoutingModule&#45;&gt;AuthModule</title>
<path fill="none" stroke="black" d="M3923.64,-122.2C3923.64,-146.36 3923.64,-186 3923.64,-186 3923.64,-186 4040.13,-186 4040.13,-186"/>
<polygon fill="black" stroke="black" points="4040.13,-189.5 4050.13,-186 4040.13,-182.5 4040.13,-189.5"/>
</g>
<!-- AddProductComponent -->
<g id="node30" class="node">
<title>AddProductComponent</title>
<polygon fill="#ffffb3" stroke="black" points="3765.49,-122 3616.51,-122 3616.51,-86 3765.49,-86 3765.49,-122"/>
<text text-anchor="middle" x="3691" y="-99.8" font-family="Times,serif" font-size="14.00">AddProductComponent</text>
</g>
<!-- AddProductComponent&#45;&gt;ProductModule -->
<g id="edge28" class="edge">
<title>AddProductComponent&#45;&gt;ProductModule</title>
<path fill="none" stroke="black" d="M3622.1,-122.42C3622.1,-131.28 3622.1,-140 3622.1,-140 3622.1,-140 3049.24,-140 3049.24,-140 3049.24,-140 3049.24,-151.87 3049.24,-151.87"/>
<polygon fill="black" stroke="black" points="3045.74,-151.87 3049.24,-161.87 3052.74,-151.87 3045.74,-151.87"/>
</g>
<!-- ProductListComponent -->
<g id="node31" class="node">
<title>ProductListComponent</title>
<polygon fill="#ffffb3" stroke="black" points="3598.16,-122 3451.84,-122 3451.84,-86 3598.16,-86 3598.16,-122"/>
<text text-anchor="middle" x="3525" y="-99.8" font-family="Times,serif" font-size="14.00">ProductListComponent</text>
</g>
<!-- ProductListComponent&#45;&gt;ProductModule -->
<g id="edge29" class="edge">
<title>ProductListComponent&#45;&gt;ProductModule</title>
<path fill="none" stroke="black" d="M3470.15,-122.24C3470.15,-129.43 3470.15,-136 3470.15,-136 3470.15,-136 3038.93,-136 3038.93,-136 3038.93,-136 3038.93,-151.85 3038.93,-151.85"/>
<polygon fill="black" stroke="black" points="3035.43,-151.85 3038.93,-161.85 3042.43,-151.85 3035.43,-151.85"/>
</g>
<!-- ProductcategoryComponent -->
<g id="node32" class="node">
<title>ProductcategoryComponent</title>
<polygon fill="#ffffb3" stroke="black" points="3433.58,-122 3260.42,-122 3260.42,-86 3433.58,-86 3433.58,-122"/>
<text text-anchor="middle" x="3347" y="-99.8" font-family="Times,serif" font-size="14.00">ProductcategoryComponent</text>
</g>
<!-- ProductcategoryComponent&#45;&gt;ProductModule -->
<g id="edge30" class="edge">
<title>ProductcategoryComponent&#45;&gt;ProductModule</title>
<path fill="none" stroke="black" d="M3291.84,-122.16C3291.84,-127.04 3291.84,-131 3291.84,-131 3291.84,-131 3028.62,-131 3028.62,-131 3028.62,-131 3028.62,-151.75 3028.62,-151.75"/>
<polygon fill="black" stroke="black" points="3025.12,-151.75 3028.62,-161.75 3032.12,-151.75 3025.12,-151.75"/>
</g>
<!-- ProductsComponent -->
<g id="node33" class="node">
<title>ProductsComponent</title>
<polygon fill="#ffffb3" stroke="black" points="3242.33,-122 3111.67,-122 3111.67,-86 3242.33,-86 3242.33,-122"/>
<text text-anchor="middle" x="3177" y="-99.8" font-family="Times,serif" font-size="14.00">ProductsComponent</text>
</g>
<!-- ProductsComponent&#45;&gt;ProductModule -->
<g id="edge31" class="edge">
<title>ProductsComponent&#45;&gt;ProductModule</title>
<path fill="none" stroke="black" d="M3159.11,-122.12C3159.11,-124.97 3159.11,-127 3159.11,-127 3159.11,-127 3018.31,-127 3018.31,-127 3018.31,-127 3018.31,-151.76 3018.31,-151.76"/>
<polygon fill="black" stroke="black" points="3014.81,-151.76 3018.31,-161.76 3021.81,-151.76 3014.81,-151.76"/>
</g>
<!-- RemoveProductComponent -->
<g id="node34" class="node">
<title>RemoveProductComponent</title>
<polygon fill="#ffffb3" stroke="black" points="3093.54,-122 2922.46,-122 2922.46,-86 3093.54,-86 3093.54,-122"/>
<text text-anchor="middle" x="3008" y="-99.8" font-family="Times,serif" font-size="14.00">RemoveProductComponent</text>
</g>
<!-- RemoveProductComponent&#45;&gt;ProductModule -->
<g id="edge32" class="edge">
<title>RemoveProductComponent&#45;&gt;ProductModule</title>
<path fill="none" stroke="black" d="M3008,-122.01C3008,-122.01 3008,-151.85 3008,-151.85"/>
<polygon fill="black" stroke="black" points="3004.5,-151.85 3008,-161.85 3011.5,-151.85 3004.5,-151.85"/>
</g>
<!-- SearchPipe -->
<g id="node35" class="node">
<title>SearchPipe</title>
<polygon fill="#ffffb3" stroke="black" points="2904.47,-122 2825.53,-122 2825.53,-86 2904.47,-86 2904.47,-122"/>
<text text-anchor="middle" x="2865" y="-99.8" font-family="Times,serif" font-size="14.00">SearchPipe</text>
</g>
<!-- SearchPipe&#45;&gt;ProductModule -->
<g id="edge33" class="edge">
<title>SearchPipe&#45;&gt;ProductModule</title>
<path fill="none" stroke="black" d="M2865,-122.1C2865,-133.09 2865,-145 2865,-145 2865,-145 2997.69,-145 2997.69,-145 2997.69,-145 2997.69,-151.68 2997.69,-151.68"/>
<polygon fill="black" stroke="black" points="2994.19,-151.68 2997.69,-161.68 3001.19,-151.68 2994.19,-151.68"/>
</g>
<!-- ProductRoutingModule -->
<g id="node36" class="node">
<title>ProductRoutingModule</title>
<polygon fill="#8dd3c7" stroke="black" points="2802.22,-122 2799.22,-126 2778.22,-126 2775.22,-122 2653.78,-122 2653.78,-86 2802.22,-86 2802.22,-122"/>
<text text-anchor="middle" x="2728" y="-99.8" font-family="Times,serif" font-size="14.00">ProductRoutingModule</text>
</g>
<!-- ProductRoutingModule&#45;&gt;ProductModule -->
<g id="edge34" class="edge">
<title>ProductRoutingModule&#45;&gt;ProductModule</title>
<path fill="none" stroke="black" d="M2745,-122.04C2745,-134.56 2745,-149 2745,-149 2745,-149 2987.38,-149 2987.38,-149 2987.38,-149 2987.38,-151.97 2987.38,-151.97"/>
<polygon fill="black" stroke="black" points="2983.88,-151.97 2987.38,-161.97 2990.88,-151.97 2983.88,-151.97"/>
</g>
<!-- FooterComponent -->
<g id="node39" class="node">
<title>FooterComponent</title>
<polygon fill="#ffffb3" stroke="black" points="3909.88,-266 3792.12,-266 3792.12,-230 3909.88,-230 3909.88,-266"/>
<text text-anchor="middle" x="3851" y="-243.8" font-family="Times,serif" font-size="14.00">FooterComponent</text>
</g>
<!-- FooterComponent&#45;&gt;ThemeModule -->
<g id="edge37" class="edge">
<title>FooterComponent&#45;&gt;ThemeModule</title>
<path fill="none" stroke="black" d="M3798.36,-229.85C3798.36,-206.24 3798.36,-168 3798.36,-168 3798.36,-168 3333.33,-168 3333.33,-168"/>
<polygon fill="black" stroke="black" points="3333.33,-164.5 3323.33,-168 3333.33,-171.5 3333.33,-164.5"/>
</g>
<!-- HeaderComponent -->
<g id="node40" class="node">
<title>HeaderComponent</title>
<polygon fill="#ffffb3" stroke="black" points="3773.74,-266 3652.26,-266 3652.26,-230 3773.74,-230 3773.74,-266"/>
<text text-anchor="middle" x="3713" y="-243.8" font-family="Times,serif" font-size="14.00">HeaderComponent</text>
</g>
<!-- HeaderComponent&#45;&gt;ThemeModule -->
<g id="edge38" class="edge">
<title>HeaderComponent&#45;&gt;ThemeModule</title>
<path fill="none" stroke="black" d="M3708.81,-229.71C3708.81,-207.79 3708.81,-174 3708.81,-174 3708.81,-174 3333.46,-174 3333.46,-174"/>
<polygon fill="black" stroke="black" points="3333.46,-170.5 3323.46,-174 3333.45,-177.5 3333.46,-170.5"/>
</g>
<!-- UserListComponent -->
<g id="node43" class="node">
<title>UserListComponent</title>
<polygon fill="#ffffb3" stroke="black" points="4684.54,-122 4555.46,-122 4555.46,-86 4684.54,-86 4684.54,-122"/>
<text text-anchor="middle" x="4620" y="-99.8" font-family="Times,serif" font-size="14.00">UserListComponent</text>
</g>
<!-- UserModule -->
<g id="node44" class="node">
<title>UserModule</title>
<polygon fill="#8dd3c7" stroke="black" points="4584.98,-198 4581.98,-202 4560.98,-202 4557.98,-198 4499.02,-198 4499.02,-162 4584.98,-162 4584.98,-198"/>
<text text-anchor="middle" x="4542" y="-175.8" font-family="Times,serif" font-size="14.00">UserModule</text>
</g>
<!-- UserListComponent&#45;&gt;UserModule -->
<g id="edge41" class="edge">
<title>UserListComponent&#45;&gt;UserModule</title>
<path fill="none" stroke="black" d="M4570.11,-122.01C4570.11,-122.01 4570.11,-151.85 4570.11,-151.85"/>
<polygon fill="black" stroke="black" points="4566.61,-151.85 4570.11,-161.85 4573.61,-151.85 4566.61,-151.85"/>
</g>
<!-- UserRoutingModule -->
<g id="node45" class="node">
<title>UserRoutingModule</title>
<polygon fill="#8dd3c7" stroke="black" points="4530.59,-122 4527.59,-126 4506.59,-126 4503.59,-122 4399.41,-122 4399.41,-86 4530.59,-86 4530.59,-122"/>
<text text-anchor="middle" x="4465" y="-99.8" font-family="Times,serif" font-size="14.00">UserRoutingModule</text>
</g>
<!-- UserRoutingModule&#45;&gt;UserModule -->
<g id="edge42" class="edge">
<title>UserRoutingModule&#45;&gt;UserModule</title>
<path fill="none" stroke="black" d="M4514.78,-122.01C4514.78,-122.01 4514.78,-151.85 4514.78,-151.85"/>
<polygon fill="black" stroke="black" points="4511.28,-151.85 4514.78,-161.85 4518.28,-151.85 4511.28,-151.85"/>
</g>
</g>
</svg>
